<svg aria-hidden="true" style="position: absolute; width: 0; height: 0; overflow: hidden;" version="1.1" xmlns="http://www.w3.org/2000/svg" xmlns:xlink="http://www.w3.org/1999/xlink">
<defs>
<symbol id="facebook" viewBox="0 0 32 32">
<path fill="#039be5" style="fill: var(--color1, #039be5)" d="M16 3.333c-6.996 0-12.667 5.671-12.667 12.667s5.671 12.667 12.667 12.667v0c6.996 0 12.667-5.671 12.667-12.667s-5.671-12.667-12.667-12.667v0z"></path>
<path fill="#fff" style="fill: var(--color2, #fff)" d="M17.715 19.357h3.278l0.515-3.33h-3.793v-1.82c0-1.383 0.452-2.61 1.746-2.61h2.079v-2.906c-0.365-0.049-1.138-0.157-2.598-0.157-3.049 0-4.836 1.61-4.836 5.278v2.215h-3.134v3.33h3.134v9.153c0.621 0.093 1.249 0.157 1.895 0.157 0.583 0 1.153-0.053 1.715-0.129v-9.18z"></path>
</symbol>
<symbol id="linkedin" viewBox="0 0 32 32">
<path fill="#0288d1" style="fill: var(--color3, #0288d1)" d="M28 24.667c0 1.841-1.492 3.333-3.333 3.333h-17.333c-1.841 0-3.333-1.492-3.333-3.333v-17.333c0-1.841 1.493-3.333 3.333-3.333h17.333c1.841 0 3.333 1.492 3.333 3.333v17.333z"></path>
<path fill="#fff" style="fill: var(--color2, #fff)" d="M8 12.667h3.333v11.333h-3.333zM9.657 11.333h-0.019c-0.995 0-1.638-0.741-1.638-1.667 0-0.946 0.663-1.666 1.676-1.666 1.014 0 1.639 0.72 1.657 1.666 0 0.925-0.643 1.667-1.677 1.667zM24 24h-3.333v-6.066c0-1.465-0.817-2.465-2.128-2.465-1.001 0-1.542 0.675-1.805 1.327-0.096 0.233-0.067 0.879-0.067 1.205v6h-3.333v-11.333h3.333v1.744c0.481-0.744 1.233-1.744 3.159-1.744 2.385 0 4.174 1.5 4.174 4.849l0.001 6.484z"></path>
</symbol>
<symbol id="link" viewBox="0 0 32 32">
<path fill="#25b7d3" style="fill: var(--color4, #25b7d3)" d="M0.494 16c0-8.563 6.944-15.506 15.506-15.506s15.506 6.944 15.506 15.506c0 8.563-6.944 15.506-15.506 15.506s-15.506-6.944-15.506-15.506z"></path>
<path fill="#fff" style="fill: var(--color2, #fff)" d="M9.65 12.694c-1.857 0-3.362 1.505-3.362 3.362s1.505 3.363 3.362 3.363v0c1.857 0 3.362-1.505 3.362-3.363s-1.505-3.363-3.363-3.363v0zM19.919 6.713c-1.857 0-3.363 1.505-3.363 3.362s1.505 3.363 3.363 3.363v0c1.857 0 3.363-1.505 3.363-3.363s-1.505-3.362-3.363-3.362v0zM19.919 18.563c-1.857 0-3.363 1.505-3.363 3.363s1.505 3.363 3.363 3.363v0c1.857 0 3.363-1.505 3.363-3.363s-1.505-3.363-3.363-3.363v0z"></path>
<path fill="#fff" style="fill: var(--color2, #fff)" d="M19.465 9.184l0.909 1.561-10.267 5.979-0.909-1.561z"></path>
<path fill="#fff" style="fill: var(--color2, #fff)" d="M10.106 15.164l10.267 5.979-0.909 1.561-10.267-5.979z"></path>
</symbol>
<symbol id="telegram" viewBox="0 0 32 32">
<path fill="#29b6f6" style="fill: var(--color5, #29b6f6)" d="M16 2.667c-7.364 0-13.333 5.97-13.333 13.333s5.97 13.333 13.333 13.333v0c7.364 0 13.333-5.97 13.333-13.333s-5.97-13.333-13.333-13.333v0z"></path>
<path fill="#fff" style="fill: var(--color2, #fff)" d="M22.633 10l-2.497 12.751c0 0-0.107 0.583-0.83 0.583-0.384 0-0.582-0.183-0.582-0.183l-5.409-4.489-2.647-1.334-3.397-0.903c0 0-0.605-0.175-0.605-0.675 0-0.417 0.622-0.615 0.622-0.615l14.211-5.645c-0.001-0.001 0.434-0.157 0.751-0.156 0.195 0 0.417 0.083 0.417 0.333 0 0.167-0.033 0.333-0.033 0.333z"></path>
<path fill="#b0bec5" style="fill: var(--color6, #b0bec5)" d="M15.333 20.337l-2.284 2.249c0 0-0.099 0.077-0.232 0.080-0.046 0.001-0.095-0.006-0.146-0.029l0.643-3.977 2.019 1.676z"></path>
<path fill="#cfd8dc" style="fill: var(--color7, #cfd8dc)" d="M19.931 12.131c-0.113-0.147-0.321-0.173-0.467-0.062l-8.797 5.265c0 0 1.404 3.928 1.618 4.608s0.387 0.697 0.387 0.697l0.643-3.977 6.555-6.064c0.147-0.111 0.174-0.32 0.063-0.467z"></path>
</symbol>
</defs>
</svg>
